<?xml version="1.0" encoding="UTF-8"?><svg id="Capa_2" xmlns="http://www.w3.org/2000/svg" viewBox="0 0 225.81 45.6"><defs><style>.cls-1{fill:#ffd96c;}.cls-1,.cls-2{stroke-width:0px;}.cls-2{fill:#034068;}</style></defs><g id="Capa_1-2"><path class="cls-1" d="m34.92,22.78v11.39H11.65V11.39h23.27v11.39c6.44,0,11.65-5.09,11.65-11.39S41.37,0,34.92,0v.03H0v45.56h34.92c6.44,0,11.65-5.09,11.65-11.39s-5.21-11.42-11.65-11.42Z"/><path class="cls-2" d="m88.3,21.67v-.06c.75-.25,1.46-.76,2.15-1.53.68-.76,1.04-1.78,1.04-3.05,0-1.72-.65-3.09-1.95-4.1-1.3-1.02-3.52-1.53-6.64-1.53h-12.99v22.85h14.55c2.15,0,3.87-.29,5.21-.86,1.3-.57,2.28-1.37,2.86-2.39.59-.99.88-2.13.88-3.37-.03-3.21-1.73-5.19-5.11-5.95Zm-14.06-6.08c0-.57.07-.92.23-1.02.13-.1.62-.13,1.37-.13h6.74c1.69,0,2.86.25,3.55.8.68.51,1.04,1.3,1.04,2.35,0,1.24-.36,2.13-1.04,2.67-.68.54-1.76.83-3.22.83h-7.06c-.78,0-1.24-.06-1.37-.16-.13-.1-.23-.45-.23-.99v-4.36Zm13.57,14.54c-.81.67-2.18,1.02-4.07,1.02h-7.94c-.75,0-1.2-.06-1.33-.16-.13-.1-.23-.45-.23-.99v-5.09c0-.57.07-.92.23-1.02.13-.1.62-.16,1.37-.16h6.74c2.47,0,4.17.29,5.08.89.91.6,1.37,1.53,1.37,2.83.03,1.11-.39,2-1.2,2.67Z"/><path class="cls-2" d="m99.04,12.76c.75,0,1.33-.22,1.76-.64.42-.41.62-.89.62-1.46s-.2-1.08-.62-1.5c-.39-.41-.98-.6-1.76-.6s-1.37.19-1.76.6c-.39.41-.62.89-.62,1.5,0,.57.2,1.05.62,1.46.42.45,1.01.64,1.76.64Z"/><path class="cls-2" d="m97.12,16.42v19.92c0,1.56-.13,2.74-.42,3.47-.29.73-.88,1.11-1.82,1.11-.81,0-1.53-.22-2.18-.67-.49-.35-.88-.67-1.17-.99l-1.01,3.5c.26.19.75.35,1.5.51.75.16,1.66.25,2.77.25s2.12-.25,3.06-.8c.94-.54,1.73-1.46,2.34-2.77.59-1.3.88-3.09.88-5.38v-18.14h-3.94v-.03Z"/><path class="cls-2" d="m120.49,34.24h3.97v-17.82h-3.97v8.46c0,1.34-.26,2.55-.81,3.63-.52,1.05-1.27,1.91-2.21,2.51-.94.6-2.05.92-3.32.92s-2.31-.38-3.06-1.18c-.78-.8-1.17-2.26-1.17-4.42v-9.93h-3.94v9.35c0,2.29.29,4.07.91,5.35.62,1.27,1.46,2.2,2.6,2.7,1.14.51,2.44.8,3.94.8,1.37,0,2.54-.22,3.52-.64.94-.41,1.72-.89,2.31-1.43.59-.54.98-1.02,1.17-1.43l.07.06-.07.76v2.29h.07Z"/><path class="cls-2" d="m184.28,20.62c-.62-1.4-1.63-2.51-3.03-3.34-1.4-.83-3.32-1.24-5.73-1.24-1.43,0-2.67.19-3.71.6-1.04.41-1.82.86-2.34,1.34l-.07-.06.07-.73v-.76h-3.97v26.25h3.97v-9.16l-.07-.73.07-.03c.68.57,1.5,1.05,2.47,1.37.98.32,2.18.51,3.61.51,2.44,0,4.36-.41,5.76-1.21,1.4-.8,2.41-1.91,2.99-3.31.59-1.4.88-2.96.88-4.71s-.33-3.37-.91-4.77Zm-3.58,8.3c-.33.99-.94,1.72-1.82,2.23-.88.51-2.12.76-3.74.76-1.5,0-2.67-.29-3.48-.83-.81-.57-1.4-1.34-1.73-2.32s-.49-2.1-.49-3.34.16-2.32.46-3.34c.29-1.02.85-1.81,1.66-2.45.81-.6,2.02-.92,3.55-.92s2.83.25,3.71.8c.88.54,1.46,1.3,1.82,2.29.36.99.52,2.2.52,3.56.07,1.4-.1,2.58-.46,3.56Z"/><path class="cls-2" d="m205.89,29.91c-.46.41-1.24.86-2.41,1.27-1.27.48-2.86.7-4.82.7-2.25,0-3.97-.54-5.11-1.62-1.14-1.08-1.73-2.58-1.73-4.45h14.94v-1.4c0-.92-.1-1.91-.33-2.86-.23-.99-.65-1.88-1.24-2.7-.62-.83-1.5-1.5-2.67-2-1.17-.51-2.73-.76-4.65-.76-3.29,0-5.79.83-7.45,2.51-1.66,1.69-2.51,3.95-2.51,6.81,0,1.3.16,2.55.46,3.66.29,1.11.81,2.1,1.56,2.93.75.83,1.79,1.5,3.12,1.97,1.33.48,2.99.7,5.04.7s3.84-.16,5.27-.51c1.43-.35,2.44-.67,3.03-1.02l-.39-2.51-.13-.7Zm-12.04-10.02c1.01-.8,2.34-1.18,4.04-1.18,1.33,0,2.34.25,3.06.73.72.51,1.24,1.08,1.53,1.81.29.7.42,1.4.42,2.07h-9.47c-.42,0-.72-.06-.85-.19-.16-.13-.23-.32-.23-.57,0-.99.49-1.88,1.5-2.67Z"/><path class="cls-2" d="m158.67,18.07c-1.27-1.34-3.12-2-5.53-2-1.33,0-2.51.19-3.42.57-.94.38-1.69.83-2.28,1.37-.59.54-1.04,1.05-1.33,1.56-.59-1.18-1.43-2.07-2.54-2.64-1.11-.57-2.44-.86-4.04-.86-1.2,0-2.21.16-2.99.45-.78.29-1.4.67-1.89,1.08-.49.45-.91.89-1.3,1.37l-.07-.06.07-.51v-1.94h-3.97v17.79h3.97v-9.42c0-2.23.49-3.82,1.46-4.74s2.18-1.4,3.65-1.4c.91,0,1.69.16,2.41.51.68.35,1.24.92,1.63,1.78.39.83.59,2,.59,3.5v9.74h3.97v-9.42c0-2.2.46-3.79,1.4-4.71.94-.92,2.15-1.4,3.65-1.4.91,0,1.69.16,2.41.51.68.35,1.24.92,1.63,1.78.39.83.59,2,.59,3.5v9.74h3.97v-9.83c-.1-2.86-.75-4.96-2.02-6.3Z"/><path class="cls-2" d="m223.89,16.55c-.88-.35-1.95-.51-3.16-.51-1.4,0-2.57.25-3.52.76-.94.51-1.73,1.11-2.31,1.88l-.07-.06.07-.64v-1.53h-4v17.79h3.97v-9.9c0-1.88.39-3.21,1.2-4.04.81-.8,1.73-1.21,2.77-1.21.91,0,1.76.16,2.57.45.81.32,1.53.67,2.15,1.11.52.35.91.7,1.24,1.05l1.01-4.1c-.39-.35-1.04-.7-1.92-1.05Z"/></g></svg>