<?xml version="1.0" encoding="UTF-8"?><svg id="Capa_2" xmlns="http://www.w3.org/2000/svg" viewBox="0 0 16 16.05"><defs><style>.cls-1{fill:#034068;stroke-width:0px;}</style></defs><g id="Capa_1-2"><path class="cls-1" d="m9.47,8L15.76,1.71c.36-.42.31-1.05-.11-1.41-.37-.32-.93-.32-1.3,0l-6.29,6.29L1.77.29C1.38-.1.74-.1.35.29S-.04,1.32.35,1.71l6.3,6.29L.35,14.29c-.42.36-.47.99-.11,1.41s.99.47,1.41.11c.04-.03.08-.07.11-.11l6.3-6.29,6.29,6.29c.42.36,1.05.31,1.41-.11.32-.37.32-.93,0-1.3l-6.29-6.29Z"/></g></svg>