<?xml version="1.0" encoding="UTF-8"?><svg id="Capa_2" xmlns="http://www.w3.org/2000/svg" viewBox="0 0 12.86 15"><defs><style>.cls-1{fill:#034068;stroke-width:0px;}</style></defs><g id="Capa_1-2"><path class="cls-1" d="m3.21,4.68v.94c0,.44.36.8.8.8h4.82c.44,0,.8-.36.8-.8v-.94c-1.26-.44-1.91-1.82-1.47-3.08.44-1.26,1.82-1.91,3.08-1.47,1.26.44,1.91,1.82,1.47,3.08-.24.69-.78,1.23-1.47,1.47v.94c0,1.33-1.08,2.41-2.41,2.41h-1.61v2.28c1.26.44,1.91,1.82,1.47,3.08-.44,1.26-1.82,1.91-3.08,1.47-1.26-.44-1.91-1.82-1.47-3.08.24-.69.78-1.23,1.47-1.47v-2.28h-1.61c-1.33,0-2.41-1.08-2.41-2.41v-.94C.35,4.24-.31,2.86.14,1.61.58.35,1.96-.31,3.21.14c1.26.44,1.91,1.82,1.47,3.08-.24.69-.78,1.23-1.47,1.47Zm0-2.27c0-.44-.36-.8-.8-.8s-.8.36-.8.8.36.8.8.8.8-.36.8-.8Zm7.23.8c.44,0,.8-.36.8-.8s-.36-.8-.8-.8-.8.36-.8.8.36.8.8.8Zm-3.21,9.37c0-.44-.36-.8-.8-.8s-.8.36-.8.8.36.8.8.8.8-.36.8-.8Z"/></g></svg>