<?xml version="1.0" encoding="UTF-8"?><svg id="Capa_2" xmlns="http://www.w3.org/2000/svg" viewBox="0 0 15.69 15"><defs><style>.cls-1{fill:#034068;stroke-width:0px;}</style></defs><g id="Capa_1-2"><path class="cls-1" d="m7.85,0c.3,0,.58.17.71.44l1.99,4.04,4.46.65c.43.06.73.47.67.9-.03.17-.11.33-.23.45l-3.23,3.15.76,4.44c.07.43-.22.84-.65.92-.17.03-.35,0-.5-.08l-3.99-2.1-3.99,2.1c-.39.2-.87.05-1.07-.33-.08-.15-.11-.33-.08-.5l.76-4.44L.24,6.49c-.31-.31-.32-.81-.02-1.12.12-.13.28-.21.46-.23l4.46-.65L7.13.44C7.27.17,7.54,0,7.85,0Zm0,2.59l-1.47,2.97c-.12.23-.34.4-.6.43l-3.28.48,2.37,2.31c.19.18.27.45.23.7l-.56,3.27,2.93-1.54c.23-.12.51-.12.74,0l2.93,1.54-.56-3.27c-.04-.26.04-.52.23-.7l2.37-2.31-3.28-.48c-.26-.04-.48-.2-.6-.43l-1.47-2.97h0Z"/></g></svg>